<svg width="20" height="21" viewBox="0 0 20 21" fill="none" xmlns="http://www.w3.org/2000/svg">
<path d="M4.16666 13H3.33333C2.8913 13 2.46738 12.8244 2.15482 12.5119C1.84226 12.1993 1.66666 11.7754 1.66666 11.3334V3.83335C1.66666 3.39133 1.84226 2.9674 2.15482 2.65484C2.46738 2.34228 2.8913 2.16669 3.33333 2.16669H10.8333C11.2754 2.16669 11.6993 2.34228 12.0118 2.65484C12.3244 2.9674 12.5 3.39133 12.5 3.83335V4.66669M9.16666 8.00002H16.6667C17.5871 8.00002 18.3333 8.74621 18.3333 9.66669V17.1667C18.3333 18.0872 17.5871 18.8334 16.6667 18.8334H9.16666C8.24619 18.8334 7.5 18.0872 7.5 17.1667V9.66669C7.5 8.74621 8.24619 8.00002 9.16666 8.00002Z" stroke="#707070" stroke-width="1.67" stroke-linecap="round" stroke-linejoin="round"/>
</svg>
